<svg width="200" height="200" viewBox="0 0 200 200" fill="none" xmlns="http://www.w3.org/2000/svg"><g clip-path="url(#a)"><path fill-rule="evenodd" clip-rule="evenodd" d="M100 33.645c-7.226 0-13.084 5.858-13.084 13.084H53.27C53.271 20.921 74.192 0 100 0s46.729 20.921 46.729 46.729S125.808 93.458 100 93.458V59.813c7.226 0 13.084-5.858 13.084-13.084S107.226 33.645 100 33.645ZM166.355 100c0-7.226-5.858-13.084-13.084-13.084V53.27C179.079 53.271 200 74.192 200 100s-20.921 46.729-46.729 46.729-46.729-20.921-46.729-46.729h33.645c0 7.226 5.858 13.084 13.084 13.084s13.084-5.858 13.084-13.084ZM46.729 113.084c-7.226 0-13.084-5.858-13.084-13.084s5.858-13.084 13.084-13.084S59.813 92.774 59.813 100h33.645c0-25.808-20.921-46.729-46.729-46.729S0 74.192 0 100s20.921 46.729 46.729 46.729v-33.645ZM100 166.355c7.226 0 13.084-5.858 13.084-13.084h33.645C146.729 179.079 125.808 200 100 200s-46.729-20.921-46.729-46.729S74.192 106.542 100 106.542v33.645c-7.226 0-13.084 5.858-13.084 13.084s5.858 13.084 13.084 13.084Z" fill="url(#b)"/></g><defs><linearGradient id="b" x1="100" y1="0" x2="100" y2="200" gradientUnits="userSpaceOnUse"><stop stop-color="#d69e2e"/><stop offset="1" stop-color="#F8FBFE"/></linearGradient><clipPath id="a"><path fill="#fff" d="M0 0h200v200H0z"/></clipPath></defs></svg>